<svg width="160" height="160" viewBox="0 0 160 160" fill="none" xmlns="http://www.w3.org/2000/svg">
<g clip-path="url(#clip0_277_265)">
<rect width="160" height="160" rx="80" fill="#9EE8B3" fill-opacity="0.15"/>
<circle cx="80" cy="80" r="45" fill="#5AC97A"/>
<path d="M74.4064 98.3037C73.7742 98.3037 73.1815 98.2041 72.6283 98.005C72.0751 97.8058 71.5614 97.4707 71.0873 96.9997L59.2494 84.9956C58.3802 84.1263 57.9645 82.9994 58.0024 81.6149C58.0403 80.2303 58.4955 79.105 59.368 78.2389C60.2373 77.3696 61.3437 76.9349 62.6871 76.9349C64.0306 76.9349 65.1369 77.3696 66.0062 78.2389L74.4064 86.8053L93.9392 62.3039C94.8085 61.4346 95.9354 61 97.32 61C98.7045 61 99.8299 61.4346 100.696 62.3039C101.565 63.1732 102 64.3002 102 65.6847C102 67.0692 101.565 68.1946 100.696 69.0607L77.7255 96.9997C77.2513 97.4739 76.7377 97.8106 76.1845 98.0097C75.6313 98.2089 75.0386 98.3068 74.4064 98.3037Z" fill="white"/>
</g>
<defs>
<clipPath id="clip0_277_265">
<rect width="160" height="160" fill="white"/>
</clipPath>
</defs>
</svg>
