<svg width="160" height="160" viewBox="0 0 160 160" fill="none" xmlns="http://www.w3.org/2000/svg">
<g clip-path="url(#clip0_302_342)">
<rect width="160" height="160" rx="80" fill="#9EE8B3" fill-opacity="0.15"/>
<path d="M80.1493 133.227C79.616 133.227 78.976 133.227 78.4426 132.907C31.0933 117.227 31.7333 81.28 32.064 55.1467V47.8933C32.064 44.9067 34.4106 42.56 37.3973 42.56C37.6106 42.56 62.0906 42.3467 76.192 28.16C78.2186 26.1333 81.7493 26.1333 83.776 28.16C97.9946 42.3467 122.357 42.56 122.571 42.56C125.557 42.56 127.904 44.9067 127.904 47.8933V55.1467C128.341 81.28 128.981 117.12 81.6426 133.013C81.1093 133.227 80.576 133.333 79.936 133.333L80.1493 133.227Z" fill="#5AC97A"/>
<path d="M60.7081 106.396C62.0735 107.762 63.7636 108.444 65.7784 108.444H94.2228C96.2329 108.449 97.9206 107.769 99.2859 106.404C100.651 105.038 101.334 103.348 101.334 101.333V80C101.339 77.9899 100.658 76.3022 99.293 74.9369C97.9277 73.5716 96.2376 72.8889 94.2228 72.8889H65.7784C63.7683 72.8842 62.0806 73.5644 60.7153 74.9298C59.3499 76.2951 58.6673 77.9852 58.6673 80V101.333C58.6625 103.343 59.3428 105.031 60.7081 106.396Z" fill="#FFFCA8"/>
<path d="M72.8895 72.8889C72.8895 72.8889 63.7683 72.8841 65.7784 72.8889V65.7778C65.7784 61.8667 67.1721 58.5173 69.9597 55.7298C72.7473 52.9422 76.0942 51.5508 80.0006 51.5556C83.9117 51.5556 87.261 52.9493 90.0486 55.7369C92.8361 58.5244 94.2275 61.8714 94.2228 65.7778V72.8889C96.2376 72.8889 87.1117 72.8889 87.1117 72.8889H72.8895ZM72.8895 72.8889H87.1117V65.7778C87.1117 63.763 86.429 62.0729 85.0637 60.7076C83.6984 59.3422 82.0107 58.6619 80.0006 58.6667C77.9858 58.6667 76.2957 59.3493 74.9304 60.7147C73.565 62.08 72.8847 63.7677 72.8895 65.7778L72.8895 72.8889Z" fill="white"/>
<path fill-rule="evenodd" clip-rule="evenodd" d="M71.2378 89.1135H71.2115V89.3468L71.4437 89.3699L71.446 89.3468H71.2115C71.2193 89.2688 71.228 89.191 71.2378 89.1135ZM69.6871 89.366C70.1251 84.0392 74.6201 79.8583 80.0922 79.8583C81.8795 79.8555 83.6392 80.3112 85.2002 81.1817C86.7612 82.0522 88.0728 83.3085 89.0098 84.8305L89.013 84.8355C89.0598 84.9073 89.0917 84.9877 89.1069 85.072C89.122 85.1563 89.1202 85.2427 89.1014 85.3263C89.0827 85.4099 89.0474 85.4888 88.9976 85.5586C88.9479 85.6283 88.8846 85.6873 88.8117 85.7322C88.7388 85.7771 88.6576 85.8069 88.5729 85.82C88.4883 85.833 88.4019 85.8289 88.3188 85.808C88.2357 85.7871 88.1577 85.7498 88.0893 85.6983C88.0209 85.6468 87.9636 85.582 87.9205 85.5079L87.9174 85.5028C87.095 84.1671 85.9437 83.0648 84.5736 82.3012C83.2035 81.5377 81.6604 81.1385 80.092 81.1417C75.336 81.1418 71.4345 84.7348 70.9793 89.3238L70.9539 89.5802H72.2535C72.3807 89.5801 72.505 89.6179 72.6108 89.6886C72.7165 89.7594 72.7987 89.86 72.8472 89.9776C72.8956 90.0953 72.9079 90.2246 72.8827 90.3493C72.8574 90.474 72.7955 90.5885 72.7051 90.678L70.7451 92.6216C70.6249 92.7407 70.4626 92.8076 70.2934 92.8076C70.1242 92.8076 69.9618 92.7407 69.8416 92.6216L67.8815 90.6778C67.7911 90.5883 67.7294 90.474 67.7041 90.3493C67.6788 90.2246 67.6912 90.0953 67.7396 89.9776C67.788 89.86 67.8703 89.7594 67.976 89.6886C68.0817 89.6179 68.2062 89.5801 68.3334 89.5802H69.6695L69.6871 89.366ZM74.7395 100.821C73.1729 99.9509 71.8551 98.694 70.9118 97.1702C70.8225 97.0253 70.7944 96.851 70.8336 96.6854C70.8728 96.5197 70.9762 96.3764 71.1211 96.287C71.1929 96.2427 71.2727 96.213 71.3559 96.1996C71.4391 96.1861 71.5242 96.1892 71.6062 96.2086C71.6883 96.228 71.7657 96.2634 71.834 96.3128C71.9024 96.3621 71.9604 96.4244 72.0046 96.4962C72.3815 97.1046 72.8264 97.6646 73.329 98.1662C73.9312 98.7672 74.6162 99.2844 75.366 99.7006C76.7414 100.464 78.2893 100.863 79.8624 100.858C84.6399 100.858 88.5549 97.2649 89.0125 92.6763L89.0381 92.4198H87.7314C87.6041 92.4199 87.4796 92.3821 87.3739 92.3112C87.2681 92.2403 87.1858 92.1396 87.1375 92.0218C87.0892 91.904 87.0769 91.7745 87.1024 91.6498C87.1279 91.525 87.19 91.4106 87.2807 91.3212L89.2488 89.3775C89.3689 89.2589 89.5309 89.1924 89.6997 89.1924C89.8685 89.1924 90.0305 89.2589 90.1506 89.3775L92.1177 91.3213C92.2083 91.4107 92.2703 91.525 92.2958 91.6498C92.3213 91.7745 92.3091 91.904 92.2607 92.0218C92.2124 92.1396 92.1301 92.2403 92.0243 92.3112C91.9186 92.3821 91.794 92.4199 91.6667 92.4198H90.3225L90.3048 92.634C89.8657 97.9634 85.3511 102.142 79.8618 102.142C78.0696 102.146 76.3062 101.691 74.7395 100.821Z" fill="#848688"/>
</g>
<defs>
<clipPath id="clip0_302_342">
<rect width="160" height="160" fill="white"/>
</clipPath>
</defs>
</svg>
