<svg width="160" height="160" viewBox="0 0 160 160" fill="none" xmlns="http://www.w3.org/2000/svg">
<g clip-path="url(#clip0_435_318)">
<rect width="160" height="160" rx="80" fill="#88E2A1" fill-opacity="0.1"/>
<path d="M26 72.4934C26 69.2947 29.5683 67.3899 32.2259 69.1699L77.5241 99.5091C78.8709 100.411 80.6291 100.411 81.9759 99.5091L127.274 69.1699C129.932 67.3899 133.5 69.2947 133.5 72.4934V125C133.5 127.209 131.709 129 129.5 129H79.75H30C27.7909 129 26 127.209 26 125V72.4934Z" fill="#FFFCA8"/>
<path d="M30.04 129C25.666 129 24.4656 122.986 28.5044 121.307L78.2153 100.638C79.1982 100.23 80.3036 100.23 81.2865 100.638L130.996 121.307C135.035 122.986 133.834 129 129.46 129H30.04Z" fill="#FFEE96"/>
<path d="M44 35C44 32.7909 45.7909 31 48 31H80.5H113C115.209 31 117 32.7909 117 35V64.8429C117 66.1893 116.323 67.4454 115.198 68.1851L82.6976 89.555C81.3638 90.432 79.6362 90.432 78.3024 89.555L45.8024 68.1851C44.6774 67.4454 44 66.1893 44 64.8429V35Z" fill="#69DFF9"/>
<path d="M80.6263 40C75.6377 40 72.4065 42.0439 69.8697 45.6891C69.4095 46.3504 69.5513 47.257 70.1933 47.7438L72.8894 49.7881C73.5377 50.2796 74.4602 50.1647 74.9677 49.5288C76.5333 47.5675 77.6946 46.4383 80.14 46.4383C82.0628 46.4383 84.441 47.6757 84.441 49.5402C84.441 50.9497 83.2775 51.6736 81.379 52.7379C79.165 53.9792 76.2353 55.5239 76.2353 59.3883V60C76.2353 60.8284 76.9068 61.5 77.7353 61.5H82.2647C83.0932 61.5 83.7647 60.8284 83.7647 60V59.6392C83.7647 56.9604 91.594 56.8489 91.594 49.6C91.594 44.141 85.9314 40 80.6263 40ZM80 63.3412C77.6128 63.3412 75.6706 65.2834 75.6706 67.6706C75.6706 70.0578 77.6128 72 80 72C82.3873 72 84.3295 70.0578 84.3295 67.6706C84.3295 65.2833 82.3873 63.3412 80 63.3412Z" fill="white"/>
</g>
<defs>
<clipPath id="clip0_435_318">
<rect width="160" height="160" fill="white"/>
</clipPath>
</defs>
</svg>
