<svg xmlns="http://www.w3.org/2000/svg" version="1.1" xmlns:xlink="http://www.w3.org/1999/xlink" xmlns:svgjs="http://svgjs.com/svgjs" width="16" height="16"><svg width="16" height="16" viewBox="0 0 16 16" fill="none" xmlns="http://www.w3.org/2000/svg">
<g clip-path="url(#clip0_48_167)">
<path d="M1.49066 8.76337C2.08783 10.2181 2.5497 11.0112 3.55381 12.2214C4.95834 13.9142 7.99986 15.6794 7.99986 15.6794C7.99986 15.6794 11.1369 13.9725 12.4908 12.2214C12.4908 12.2214 11.1359 12.2259 10.2678 12.0561C9.39965 11.8864 8.04477 11.352 8.04477 11.352C8.04477 11.352 6.66061 10.5487 6.02142 9.77827C5.56446 9.22751 5.35426 8.86659 5.0825 8.20455C4.6679 7.19454 4.63164 5.44543 4.63164 5.44543C4.63164 5.44543 3.63234 6.24814 3.06115 6.83495C2.38371 7.53092 1.49066 8.76337 1.49066 8.76337Z" fill="#54B872"></path>
<path d="M12.4911 12.2214C13.4236 11.0153 13.7494 10.184 14.3027 8.76339C15.1787 6.51458 15.5 2.70059 15.5 2.70059C15.5 2.70059 13.2962 1.42022 11.7501 0.949116C11.346 0.826012 10.9886 0.722072 10.6498 0.636353C10.6498 0.636353 11.1656 2.07857 11.3234 3.0409C11.4757 3.96901 11.4581 5.44545 11.4581 5.44545C11.4581 5.44545 11.3119 7.18116 10.9133 8.20457C10.6614 8.85106 10.5132 9.22941 10.0888 9.77829C9.47264 10.5752 8.04501 11.352 8.04501 11.352C8.04501 11.352 9.39989 11.8864 10.268 12.0562C11.1362 12.2259 12.4911 12.2214 12.4911 12.2214Z" fill="#88E2A1"></path>
<path d="M4.24995 0.949169C2.70382 1.42027 0.5 2.70064 0.5 2.70064C0.5 2.70064 0.579669 6.54408 1.49071 8.76344C1.49071 8.76344 2.38375 7.53099 3.0612 6.83502C3.63239 6.24821 4.63168 5.44551 4.63168 5.44551C4.63168 5.44551 5.63462 4.86283 6.33825 4.64843C6.98467 4.45147 7.36906 4.3623 8.04482 4.3623C8.72057 4.3623 9.10496 4.45147 9.75138 4.64843C10.455 4.86283 11.4579 5.44551 11.4579 5.44551C11.4579 5.44551 11.4755 3.96906 11.3232 3.04096C11.1654 2.07863 10.6496 0.636406 10.6496 0.636406C9.79715 0.420759 9.06244 0.320435 7.99991 0.320435C6.51502 0.320435 5.67037 0.516368 4.24995 0.949169Z" fill="#5AC97A"></path>
</g>
<defs>
<clipPath id="SvgjsClipPath1000">
<rect width="16" height="16" fill="white"></rect>
</clipPath>
</defs>
</svg><style>@media (prefers-color-scheme: light) { :root { filter: none; } }
</style></svg>