<svg width="260" height="260" viewBox="0 0 260 260" fill="none" xmlns="http://www.w3.org/2000/svg">
<path d="M47.9752 226.465C94.1668 251.16 169.068 251.16 215.28 226.465C261.492 201.77 261.477 161.788 215.28 137.114C169.083 112.44 94.1876 112.44 47.996 137.114C1.80442 161.788 1.77842 201.791 47.9752 226.465Z" fill="#898989" fill-opacity="0.1"/>
<path d="M45.2036 182.047L43.8724 181.277C43.3027 180.906 42.8287 180.405 42.489 179.816C42.1492 179.227 41.9534 178.566 41.9172 177.887V61.1936C41.9534 60.5145 42.1492 59.8535 42.489 59.2644C42.8287 58.6752 43.3027 58.1746 43.8724 57.8032L97.6924 26.728C98.2992 26.4205 98.9699 26.2603 99.6502 26.2603C100.33 26.2603 101.001 26.4205 101.608 26.728L102.96 27.4976C103.53 27.869 104.004 28.3696 104.343 28.9588C104.683 29.5479 104.879 30.2089 104.915 30.888V147.581C104.879 148.26 104.683 148.921 104.343 149.51C104.004 150.1 103.53 150.6 102.96 150.972L49.1244 182.047C48.5167 182.354 47.8451 182.515 47.164 182.515C46.4829 182.515 45.8114 182.354 45.2036 182.047Z" fill="#37474F"/>
<path d="M49.7899 63.4764L42.5099 59.2644C42.1581 59.8483 41.9612 60.5123 41.9379 61.1936V177.887C41.974 178.566 42.1699 179.227 42.5096 179.816C42.8494 180.405 43.3234 180.906 43.8931 181.277L45.2243 182.047C45.832 182.354 46.5036 182.515 47.1847 182.515C47.8658 182.515 48.5373 182.354 49.1451 182.047L49.8107 181.662L49.7899 63.4764Z" fill="#263238"/>
<path d="M47.1641 64.2252V180.918C47.1641 182.166 48.0429 182.671 49.1245 182.047L102.96 150.972C103.53 150.6 104.004 150.1 104.344 149.51C104.683 148.921 104.879 148.26 104.915 147.581V30.888C104.915 29.64 104.042 29.1356 102.96 29.7596L49.1245 60.84C48.5559 61.2118 48.0824 61.7118 47.742 62.2996C47.4015 62.8875 47.2036 63.547 47.1641 64.2252Z" fill="#455A64"/>
<path d="M51.48 71.5988L100.417 43.3472C101.343 42.8272 102.097 43.2484 102.097 44.3196V137.4C102.065 137.983 101.896 138.55 101.604 139.056C101.313 139.562 100.906 139.992 100.417 140.312L51.48 168.574C50.5492 169.094 49.8004 168.672 49.8004 167.601V74.5212C49.8287 73.9359 49.9958 73.3656 50.2878 72.8575C50.5798 72.3494 50.9885 71.918 51.48 71.5988Z" fill="#F8F8F8"/>
<path d="M76.0345 48.3236C76.7573 47.9076 77.3449 48.2456 77.3449 49.0828C77.3207 49.538 77.1894 49.981 76.9617 50.3759C76.734 50.7707 76.4163 51.1063 76.0345 51.3552C75.3065 51.7764 74.7189 51.4332 74.7189 50.6012C74.7437 50.1449 74.8757 49.7008 75.1043 49.3051C75.3329 48.9094 75.6516 48.5731 76.0345 48.3236Z" fill="#263238"/>
<path d="M72.2436 54.8808C74.9112 53.4092 79.664 50.5752 82.2952 49.0308C82.7424 48.7656 83.1012 48.9476 83.1012 49.4364C83.0806 49.7087 82.9965 49.9723 82.8557 50.2062C82.7148 50.4401 82.5211 50.6377 82.29 50.7832L72.2228 56.5968C71.7756 56.8568 71.4116 56.6696 71.4116 56.186C71.4346 55.9174 71.5223 55.6584 71.6672 55.4311C71.8121 55.2038 72.0099 55.015 72.2436 54.8808Z" fill="#263238"/>
<path d="M69.68 56.3524C70.0857 56.1132 70.4133 56.3056 70.4133 56.7736C70.4003 57.0295 70.3272 57.2787 70.1998 57.501C70.0724 57.7233 69.8943 57.9124 69.68 58.0528C69.2744 58.2868 68.9417 58.0944 68.9417 57.6264C68.9563 57.3711 69.0308 57.1227 69.1591 56.9014C69.2873 56.6802 69.4658 56.4921 69.68 56.3524Z" fill="#263238"/>
<path d="M76.0345 157.42C77.4801 156.582 78.6345 157.258 78.6345 158.933C78.5879 159.841 78.3284 160.726 77.8767 161.515C77.425 162.305 76.7939 162.977 76.0345 163.478C74.5837 164.315 73.4084 163.639 73.4084 161.964C73.4579 161.054 73.7214 160.167 74.1777 159.378C74.634 158.588 75.2701 157.917 76.0345 157.42Z" fill="#263238"/>
<path d="M130.78 176.171C130.46 175.953 130.197 175.663 130.01 175.324C129.823 174.985 129.718 174.608 129.704 174.221V112.143C129.725 111.744 129.84 111.356 130.04 111.01C130.239 110.664 130.518 110.37 130.853 110.152L210.491 64.1733C210.823 63.9638 211.207 63.8489 211.599 63.8413C211.992 63.8336 212.38 63.9333 212.72 64.1297C213.061 64.3261 213.341 64.6117 213.531 64.9557C213.721 65.2997 213.813 65.689 213.798 66.0817V128.159C213.777 128.558 213.662 128.947 213.462 129.293C213.262 129.639 212.984 129.933 212.649 130.151L133.011 176.135C132.668 176.314 132.287 176.411 131.9 176.418C131.512 176.424 131.129 176.339 130.78 176.171Z" fill="#455A64"/>
<path d="M213.788 65.8892C213.704 65.2964 213.226 65.078 212.649 65.416L133.011 111.394C132.671 111.605 132.391 111.901 132.2 112.252L130.042 111.01C130.233 110.658 130.513 110.362 130.853 110.152L210.496 64.168C210.814 63.9673 211.179 63.8536 211.555 63.8384C211.931 63.8231 212.304 63.9068 212.637 64.0811C212.971 64.2554 213.252 64.5141 213.454 64.8314C213.656 65.1487 213.771 65.5135 213.788 65.8892Z" fill="#37474F"/>
<path d="M132.74 176.249C132.715 176.265 132.687 176.275 132.657 176.28C132.606 176.305 132.552 176.323 132.496 176.332H132.408C132.353 176.348 132.298 176.358 132.241 176.363H132.106C131.908 176.389 131.706 176.389 131.508 176.363C131.255 176.337 131.009 176.261 130.785 176.14C130.464 175.923 130.199 175.633 130.011 175.294C129.823 174.955 129.718 174.577 129.704 174.19V112.138C129.718 111.739 129.835 111.351 130.042 111.01L132.2 112.252C131.992 112.595 131.876 112.986 131.862 113.386V175.469C131.844 175.619 131.87 175.772 131.938 175.907C132.005 176.043 132.111 176.156 132.241 176.233C132.298 176.261 132.36 176.279 132.423 176.285C132.494 176.295 132.566 176.295 132.636 176.285L132.74 176.249Z" fill="#263238"/>
<path d="M138.32 129.568V139.36C138.32 140.093 138.84 140.4 139.469 140.026L152.261 132.636C152.595 132.418 152.874 132.124 153.073 131.778C153.273 131.432 153.388 131.044 153.41 130.645V120.858C153.41 120.125 152.89 119.818 152.261 120.193L139.469 127.582C139.135 127.799 138.856 128.092 138.656 128.437C138.456 128.782 138.341 129.17 138.32 129.568Z" fill="#5AC97A"/>
<path d="M155.442 121.766L136.041 132.976L136.301 133.426L155.702 122.216L155.442 121.766Z" fill="#F8F8F8"/>
<path d="M142.901 129.459H142.381V134.451H142.901V129.459Z" fill="#F8F8F8"/>
<path d="M149.37 125.746H148.85V130.728H149.37V125.746Z" fill="#F8F8F8"/>
<path d="M155.443 126.768L136.042 137.978L136.303 138.428L155.703 127.218L155.443 126.768Z" fill="#F8F8F8"/>
<path d="M138.84 121.644C138.783 121.612 138.757 121.529 138.757 121.394V115.96C138.754 115.839 138.782 115.718 138.84 115.612C138.905 115.503 138.998 115.415 139.11 115.357L141.43 114.015C142.007 113.682 142.444 113.584 142.735 113.724C143.026 113.864 143.172 114.208 143.172 114.764C143.168 115.063 143.107 115.358 142.99 115.632C142.878 115.916 142.714 116.175 142.506 116.397C143.026 116.293 143.317 116.594 143.317 117.307C143.313 117.663 143.242 118.016 143.109 118.347C142.961 118.729 142.747 119.081 142.475 119.387C142.176 119.724 141.825 120.01 141.435 120.234L139.116 121.571C138.996 121.68 138.902 121.68 138.84 121.644ZM141.206 116.672C141.408 116.562 141.579 116.4 141.7 116.204C141.815 116.015 141.875 115.797 141.872 115.575C141.872 115.326 141.82 115.18 141.71 115.133C141.601 115.086 141.435 115.133 141.19 115.263L140.046 115.929V117.333L141.206 116.672ZM141.336 119.194C141.545 119.078 141.719 118.907 141.839 118.7C141.96 118.494 142.023 118.259 142.022 118.019C142.022 117.759 141.955 117.598 141.825 117.546C141.729 117.523 141.629 117.522 141.533 117.543C141.437 117.563 141.346 117.605 141.268 117.666L140.062 118.368V119.928L141.336 119.194Z" fill="#F8F8F8"/>
<path d="M143.312 119.007C143.306 118.954 143.306 118.9 143.312 118.846L145.361 112.029C145.388 111.929 145.428 111.832 145.48 111.743C145.531 111.67 145.599 111.611 145.678 111.571L146.255 111.238C146.338 111.192 146.401 111.171 146.442 111.186C146.498 111.219 146.541 111.271 146.562 111.332L148.611 115.788C148.618 115.831 148.618 115.875 148.611 115.918C148.612 115.967 148.599 116.016 148.574 116.058C148.55 116.1 148.514 116.135 148.47 116.158L147.514 116.709C147.467 116.744 147.41 116.762 147.352 116.761C147.316 116.761 147.29 116.719 147.259 116.662L146.9 115.794L144.976 116.906L144.617 118.186C144.6 118.26 144.57 118.33 144.529 118.394C144.484 118.447 144.429 118.492 144.368 118.524L143.458 119.08C143.359 119.132 143.312 119.111 143.312 119.007ZM146.64 114.92L145.98 113.324L145.319 115.679L146.64 114.92Z" fill="#F8F8F8"/>
<path d="M149.401 115.549C149.344 115.518 149.318 115.435 149.318 115.305V109.876C149.314 109.756 149.343 109.638 149.401 109.533C149.468 109.421 149.566 109.331 149.682 109.273L150.171 108.992C150.231 108.95 150.301 108.923 150.374 108.914C150.43 108.922 150.481 108.95 150.519 108.992L152.734 111.322V107.916C152.73 107.792 152.759 107.67 152.818 107.562C152.884 107.455 152.977 107.367 153.088 107.307L153.681 106.964C153.816 106.886 153.904 106.865 153.962 106.902C154.019 106.938 154.04 107.021 154.04 107.162V112.575C154.043 112.694 154.017 112.812 153.962 112.918C153.893 113.027 153.796 113.115 153.681 113.173L153.161 113.464C153.102 113.504 153.034 113.527 152.963 113.532C152.908 113.525 152.856 113.499 152.818 113.459L150.597 111.14V114.551C150.6 114.668 150.573 114.785 150.519 114.889C150.451 114.999 150.354 115.089 150.238 115.149L149.646 115.487C149.547 115.565 149.453 115.58 149.401 115.549Z" fill="#F8F8F8"/>
<path d="M159.297 109.777C159.298 109.826 159.285 109.874 159.26 109.917C159.236 109.959 159.2 109.993 159.156 110.016L158.168 110.583C158.123 110.611 158.074 110.632 158.023 110.646C157.988 110.65 157.952 110.641 157.924 110.62L156.177 108.976V111.379C156.18 111.498 156.153 111.616 156.099 111.722C156.028 111.829 155.932 111.917 155.818 111.977L155.225 112.32C155.1 112.393 155.012 112.414 154.955 112.382C154.898 112.351 154.872 112.263 154.872 112.133V106.694C154.868 106.572 154.896 106.452 154.955 106.345C155.02 106.236 155.114 106.147 155.225 106.085L155.818 105.742C155.953 105.669 156.042 105.648 156.099 105.68C156.156 105.711 156.177 105.799 156.177 105.94V108.295V108.248L157.867 104.666C157.891 104.61 157.924 104.559 157.966 104.515C158.015 104.47 158.069 104.43 158.127 104.395L159.099 103.834C159.198 103.782 159.245 103.808 159.245 103.912C159.241 103.971 159.226 104.03 159.198 104.083L157.321 107.952L159.25 109.658C159.267 109.672 159.28 109.691 159.288 109.712C159.296 109.733 159.299 109.755 159.297 109.777Z" fill="#F8F8F8"/>
<path d="M163.41 106.86C162.89 106.595 162.651 105.94 162.651 104.889C162.638 103.894 162.893 102.913 163.389 102.05C163.904 101.194 164.633 100.488 165.506 100.001C165.832 99.8031 166.182 99.6443 166.546 99.528C166.801 99.4393 167.074 99.4126 167.341 99.45C167.353 99.4513 167.364 99.4549 167.374 99.4606C167.385 99.4662 167.394 99.4739 167.401 99.4831C167.408 99.4923 167.414 99.5028 167.417 99.5141C167.42 99.5254 167.421 99.5372 167.419 99.5488C167.415 99.6118 167.399 99.6735 167.372 99.7308L167.092 100.448C167.072 100.512 167.034 100.568 166.982 100.61C166.941 100.631 166.894 100.64 166.847 100.636C166.424 100.635 166.009 100.759 165.656 100.994C165.125 101.296 164.687 101.736 164.388 102.268C164.081 102.844 163.927 103.488 163.94 104.14C163.94 104.858 164.096 105.31 164.408 105.487C164.622 105.568 164.852 105.592 165.078 105.556C165.303 105.521 165.515 105.427 165.693 105.284C166.171 105.018 166.596 104.666 166.946 104.244C166.984 104.193 167.03 104.147 167.081 104.109C167.118 104.109 167.154 104.109 167.19 104.146L167.497 104.582C167.516 104.608 167.527 104.639 167.528 104.671C167.514 104.742 167.482 104.808 167.435 104.863C166.922 105.531 166.271 106.081 165.526 106.475C164.622 106.995 163.909 107.12 163.41 106.86Z" fill="#F8F8F8"/>
<path d="M167.825 104.853C167.821 104.801 167.821 104.749 167.825 104.697L169.905 97.8744C169.927 97.7727 169.968 97.6758 170.024 97.5884C170.076 97.52 170.142 97.4633 170.217 97.422L170.794 97.084C170.85 97.0436 170.919 97.0268 170.986 97.0372C171.044 97.0682 171.087 97.1205 171.106 97.1828L173.155 101.634C173.162 101.679 173.162 101.724 173.155 101.769C173.157 101.818 173.144 101.866 173.119 101.907C173.095 101.949 173.058 101.982 173.014 102.003L172.058 102.56C172.01 102.593 171.954 102.611 171.896 102.612C171.875 102.603 171.855 102.59 171.839 102.573C171.823 102.555 171.81 102.535 171.803 102.513L171.439 101.644L169.52 102.752L169.166 104.036C169.147 104.108 169.117 104.176 169.078 104.239C169.033 104.295 168.976 104.341 168.912 104.374L167.96 104.926C167.872 104.983 167.825 104.957 167.825 104.853ZM171.153 100.766L170.498 99.1744L169.832 101.53L171.153 100.766Z" fill="#F8F8F8"/>
<path d="M173.909 101.4C173.857 101.369 173.826 101.286 173.826 101.15V95.732C173.825 95.6108 173.853 95.4913 173.909 95.3836C173.977 95.2762 174.072 95.1884 174.184 95.1288L176.186 93.9744C177.521 93.1978 178.19 93.4856 178.194 94.8376C178.197 95.2619 178.115 95.6826 177.954 96.0752C177.791 96.4814 177.553 96.8536 177.252 97.1724L178.084 98.7948C178.093 98.8325 178.093 98.8715 178.084 98.9092C178.084 98.9639 178.069 99.0175 178.039 99.0636C178.01 99.1096 177.968 99.1463 177.918 99.1692L177.044 99.6892C176.995 99.7249 176.938 99.7481 176.878 99.7568C176.836 99.7568 176.805 99.7256 176.779 99.6684L176.051 98.1084L175.11 98.6284V100.417C175.118 100.541 175.089 100.664 175.026 100.771C174.963 100.878 174.869 100.963 174.756 101.015L174.164 101.358C174.06 101.4 173.966 101.431 173.909 101.4ZM175.989 97.0216C176.26 96.8767 176.492 96.6679 176.665 96.4132C176.82 96.1675 176.899 95.8819 176.894 95.5916C176.894 95.2744 176.821 95.0716 176.686 95.0144C176.55 94.9572 176.342 95.0144 176.067 95.1496L175.131 95.68V97.5052L175.989 97.0216Z" fill="#F8F8F8"/>
<path d="M178.927 98.5036C178.87 98.4724 178.844 98.3892 178.844 98.254V92.8408C178.84 92.7193 178.868 92.599 178.927 92.4924C178.991 92.3823 179.085 92.2923 179.197 92.2324L180.861 91.2756C181.763 90.7522 182.447 90.6048 182.915 90.8336C183.383 91.0624 183.617 91.7124 183.617 92.7836C183.643 93.7519 183.398 94.7083 182.91 95.5448C182.402 96.3537 181.697 97.0209 180.861 97.4844L179.197 98.4412C179.072 98.514 178.979 98.5348 178.927 98.5036ZM180.924 96.3404C181.361 96.0983 181.722 95.7379 181.964 95.3004C182.22 94.7533 182.34 94.1518 182.312 93.548C182.312 92.82 182.198 92.3728 181.964 92.2064C181.73 92.04 181.381 92.0972 180.924 92.3676L180.149 92.8148V96.8032L180.924 96.3404Z" fill="#F8F8F8"/>
<path d="M138.32 148.247V150.571C138.32 151.304 138.84 151.611 139.469 151.237L152.261 143.848C152.594 143.628 152.87 143.333 153.067 142.987C153.265 142.641 153.379 142.254 153.4 141.856V139.532C153.4 138.798 152.88 138.492 152.251 138.866L139.459 146.255C139.126 146.474 138.849 146.769 138.652 147.115C138.454 147.461 138.34 147.849 138.32 148.247Z" fill="#EBEBEB"/>
<path d="M156.296 137.873V140.197C156.296 140.93 156.816 141.237 157.446 140.858L170.243 133.474C170.577 133.255 170.855 132.961 171.055 132.615C171.254 132.269 171.37 131.881 171.392 131.482V129.158C171.392 128.424 170.872 128.118 170.243 128.492L157.446 135.881C157.111 136.099 156.832 136.393 156.632 136.739C156.433 137.085 156.318 137.474 156.296 137.873Z" fill="#EBEBEB"/>
<path d="M174.268 127.494V129.818C174.268 130.551 174.788 130.858 175.417 130.484L188.209 123.094C188.543 122.877 188.822 122.584 189.022 122.239C189.222 121.894 189.337 121.506 189.358 121.108V118.778C189.358 118.045 188.838 117.738 188.209 118.118L175.417 125.502C175.083 125.721 174.804 126.015 174.605 126.361C174.405 126.707 174.29 127.095 174.268 127.494Z" fill="#EBEBEB"/>
<path d="M192.234 117.12V119.444C192.234 120.177 192.754 120.484 193.383 120.11L206.18 112.72C206.515 112.502 206.793 112.208 206.993 111.862C207.193 111.516 207.308 111.128 207.329 110.729V108.404C207.329 107.671 206.809 107.364 206.18 107.739L193.383 115.128C193.049 115.347 192.77 115.641 192.571 115.987C192.371 116.333 192.256 116.721 192.234 117.12Z" fill="#EBEBEB"/>
<path d="M200.169 119.928L197.236 121.623C197.036 121.753 196.87 121.929 196.75 122.136C196.631 122.343 196.562 122.575 196.55 122.814V123.713C196.55 124.15 196.856 124.332 197.236 124.108L200.169 122.418C200.371 122.288 200.538 122.111 200.659 121.904C200.779 121.696 200.848 121.462 200.86 121.222V120.323C200.86 119.886 200.554 119.709 200.169 119.928Z" fill="#5AC97A"/>
<path d="M206.638 116.194L203.705 117.884C203.505 118.016 203.338 118.192 203.219 118.4C203.1 118.608 203.031 118.841 203.018 119.08V119.98C203.018 120.416 203.325 120.593 203.705 120.375L206.638 118.68C206.839 118.55 207.006 118.374 207.127 118.167C207.247 117.96 207.316 117.728 207.329 117.489V116.589C207.329 116.152 207.022 115.96 206.638 116.194Z" fill="#5AC97A"/>
<path d="M169.608 143.796L206.123 122.72C206.757 122.351 207.272 122.652 207.272 123.386V124.462C207.251 124.861 207.136 125.249 206.936 125.595C206.736 125.942 206.458 126.236 206.123 126.454L169.608 147.534C168.974 147.904 168.459 147.607 168.459 146.874V145.792C168.48 145.393 168.596 145.004 168.795 144.657C168.995 144.31 169.274 144.015 169.608 143.796Z" fill="#5AC97A"/>
<path d="M92.2012 57.2V110.666C92.2226 111.057 92.3355 111.436 92.5305 111.775C92.7256 112.114 92.9975 112.402 93.3244 112.616L95.3004 113.755C95.6493 113.932 96.035 114.024 96.4262 114.024C96.8173 114.024 97.203 113.932 97.552 113.755L131.206 94.328C131.534 94.1142 131.807 93.8263 132.003 93.4876C132.199 93.1488 132.313 92.7687 132.335 92.378V38.922C132.314 38.5311 132.2 38.1507 132.004 37.8118C131.808 37.473 131.535 37.1852 131.206 36.972L129.236 35.8332C128.887 35.6564 128.501 35.5643 128.11 35.5643C127.719 35.5643 127.333 35.6564 126.984 35.8332L93.3244 55.2656C92.9996 55.4784 92.7289 55.7641 92.5339 56.0999C92.339 56.4358 92.225 56.8124 92.2012 57.2Z" fill="#EBEBEB"/>
<path d="M132.324 38.74C132.246 38.1576 131.773 37.9444 131.206 38.272L97.552 57.72C97.2179 57.9283 96.9423 58.2182 96.7512 58.5624L92.5288 56.1236C92.721 55.7819 92.9942 55.4926 93.3244 55.2812L126.984 35.8332C127.333 35.6564 127.719 35.5643 128.11 35.5643C128.501 35.5643 128.887 35.6564 129.236 35.8332L131.206 36.972C131.509 37.1691 131.765 37.429 131.958 37.7341C132.151 38.0392 132.276 38.3823 132.324 38.74Z" fill="#F5F5F5"/>
<path d="M97.3544 113.844C97.3321 113.848 97.3091 113.848 97.2868 113.844C97.2438 113.865 97.1984 113.88 97.1516 113.89L96.9228 113.948C96.4687 114.032 96.0003 113.995 95.5656 113.838C95.4796 113.807 95.3962 113.768 95.316 113.724L93.34 112.585C93.0132 112.371 92.7413 112.083 92.5462 111.744C92.3511 111.405 92.2383 111.025 92.2168 110.635V57.2C92.2302 56.809 92.3429 56.4278 92.5444 56.0924L96.7668 58.5312C96.5653 58.8666 96.4526 59.2478 96.4392 59.6388V113.105C96.4277 113.316 96.4882 113.525 96.6108 113.698C96.6825 113.784 96.7774 113.848 96.8843 113.882C96.9912 113.916 97.1056 113.919 97.214 113.89L97.3544 113.844Z" fill="#E0E0E0"/>
<path d="M119.454 78.4264C120.926 79.4092 122.814 79.4664 124.727 79.1076" stroke="#263238" stroke-miterlimit="10" stroke-linecap="round"/>
<path d="M114.634 68.12C116.194 67.6676 117.135 68.4372 117.302 70.642C117.504 73.3564 117.442 75.9096 118.836 77.4748" stroke="#263238" stroke-miterlimit="10" stroke-linecap="round"/>
<path d="M112.07 82.68C110.895 79.8096 110.292 70.9488 113.63 68.64" stroke="#263238" stroke-miterlimit="10" stroke-linecap="round"/>
<path d="M122.143 88.14C118.31 88.5924 114.696 87.4432 112.653 83.8552" stroke="#263238" stroke-miterlimit="10" stroke-linecap="round"/>
<path d="M122.902 86.0444C116.735 86.7152 112.341 83.5796 113.064 73.0756C113.136 72.0876 113.682 70.954 114.416 70.5276H114.442C115.19 70.1168 115.95 70.6004 115.934 71.5988C115.825 79.1128 118.258 82.602 124.42 81.51" stroke="#263238" stroke-miterlimit="10" stroke-linecap="round"/>
<path d="M120.708 90.6464C112.996 91.1664 108.867 86.0444 109.476 75.244C109.678 71.6768 111.036 67.7248 113.708 66.1804C113.745 66.1548 113.783 66.1322 113.823 66.1128C116.537 64.6204 118.654 66.1856 118.934 69.8464C119.205 73.3616 119.304 77.5112 125.112 76.5284" stroke="#263238" stroke-miterlimit="10" stroke-linecap="round"/>
<path d="M115.44 92.6016C116.609 93.0199 117.839 93.243 119.08 93.262" stroke="#263238" stroke-miterlimit="10" stroke-linecap="round"/>
<path d="M109.476 87.88C110.471 89.8343 112.13 91.37 114.156 92.2116" stroke="#263238" stroke-miterlimit="10" stroke-linecap="round"/>
<path d="M109.938 67.9796C106.61 74.1208 107.458 82.3576 108.836 86.3304" stroke="#263238" stroke-miterlimit="10" stroke-linecap="round"/>
<path d="M120.64 69.4304C120.328 66.0972 119.48 63.8196 117.062 63.284C115.133 62.8628 112.663 64.0848 110.703 66.7784" stroke="#263238" stroke-miterlimit="10" stroke-linecap="round"/>
<path d="M125.356 74.2196C123.37 74.9164 121.259 74.4848 120.89 71.4688" stroke="#263238" stroke-miterlimit="10" stroke-linecap="round"/>
<path d="M125.497 71.9264C123.417 71.9836 122.455 71.058 121.95 67.3296C121.176 61.6096 118.217 59.1604 113.63 61.8124C108.815 64.5892 105.924 71.4688 105.706 77.1576C105.284 87.8644 108.644 92.1232 113.922 94.2812C115.1 94.7514 116.334 95.0678 117.593 95.2224" stroke="#263238" stroke-miterlimit="10" stroke-linecap="round"/>
<path d="M122.886 64.1056C123.297 66.3572 123.516 69.498 125.554 69.4304" stroke="#263238" stroke-miterlimit="10" stroke-linecap="round"/>
<path d="M118.383 58.3856C120.354 58.7548 121.831 60.3928 122.58 62.8056" stroke="#263238" stroke-miterlimit="10" stroke-linecap="round"/>
<path d="M110.713 61.724C112.793 59.5712 115.242 58.4012 117.302 58.3128" stroke="#263238" stroke-miterlimit="10" stroke-linecap="round"/>
<path d="M104.728 71.9836C105.611 68.6104 107.233 65.4756 109.476 62.8056" stroke="#263238" stroke-miterlimit="10" stroke-linecap="round"/>
<path d="M103.958 82.68C103.597 79.6262 103.701 76.5352 104.265 73.5124" stroke="#263238" stroke-miterlimit="10" stroke-linecap="round"/>
<path d="M106.6 91.468C105.391 89.3049 104.571 86.9465 104.177 84.5" stroke="#263238" stroke-miterlimit="10" stroke-linecap="round"/>
<path d="M114.52 97.5156C112.076 96.5172 109.351 95.0612 107.619 92.7316" stroke="#263238" stroke-miterlimit="10" stroke-linecap="round"/>
<path d="M111.8 99.0756C104.473 96.0804 101.92 88.1816 101.92 79.3936C101.92 70.6056 106.08 61.1416 113.615 57.0076C118.726 54.21 125.544 57.2416 125.544 66.0296" stroke="#263238" stroke-miterlimit="10" stroke-linecap="round"/>
<path d="M121.16 83.8968C122.08 83.9426 123.002 83.9061 123.916 83.7876" stroke="#263238" stroke-miterlimit="10" stroke-linecap="round"/>
<path d="M116.126 81.12C116.498 81.8176 117.023 82.4213 117.663 82.8854C118.303 83.3494 119.04 83.6615 119.818 83.798" stroke="#263238" stroke-miterlimit="10" stroke-linecap="round"/>
<path d="M114.572 72.228C114.322 75.244 114.702 78.0156 115.56 79.9864" stroke="#263238" stroke-miterlimit="10" stroke-linecap="round"/>
<path d="M116.839 53.196C118.923 52.7722 121.091 53.173 122.886 54.314" stroke="#263238" stroke-miterlimit="10" stroke-linecap="round"/>
<path d="M107.64 58.76C109.705 56.5024 112.269 54.7591 115.128 53.6692" stroke="#263238" stroke-miterlimit="10" stroke-linecap="round"/>
<path d="M105.076 97.6768C105.832 98.6181 106.78 99.3859 107.858 99.9284" stroke="#263238" stroke-miterlimit="10" stroke-linecap="round"/>
<path d="M101.65 91.884C102.231 93.4969 103.073 95.004 104.14 96.3456" stroke="#263238" stroke-miterlimit="10" stroke-linecap="round"/>
<path d="M19.989 122.429C20.0079 122.083 20.1076 121.746 20.28 121.445C20.4525 121.144 20.693 120.888 20.9822 120.697L72.0202 91.234C72.3298 91.0777 72.6718 90.9962 73.0186 90.9962C73.3654 90.9962 73.7074 91.0777 74.017 91.234L75.1402 91.884C75.4306 92.073 75.6723 92.3279 75.8458 92.6278C76.0192 92.9278 76.1196 93.2644 76.1386 93.6104V132.73C76.1195 133.077 76.0192 133.414 75.8458 133.715C75.6724 134.016 75.4307 134.271 75.1402 134.462L24.1022 163.925C23.7935 164.081 23.4524 164.162 23.1064 164.162C22.7604 164.162 22.4193 164.081 22.1106 163.925L20.9874 163.28C20.697 163.091 20.4553 162.836 20.2819 162.536C20.1084 162.236 20.0081 161.9 19.989 161.554V122.429Z" fill="#5AC97A"/>
<path opacity="0.4" d="M20.28 121.446L23.1088 123.079L75.8472 92.6276C75.6773 92.3245 75.4342 92.0689 75.14 91.884L74.0116 91.234C73.7029 91.0777 73.3618 90.9963 73.0158 90.9963C72.6698 90.9963 72.3287 91.0777 72.02 91.234L20.9872 120.697C20.6904 120.881 20.4466 121.139 20.28 121.446Z" fill="#F8F8F8"/>
<path opacity="0.1" d="M19.9836 122.429V161.548C20.0029 161.896 20.1038 162.233 20.2782 162.534C20.4526 162.835 20.6955 163.091 20.9872 163.28L22.1104 163.93C22.1971 163.979 22.2875 164.021 22.3808 164.055C22.7687 164.181 23.1832 164.203 23.582 164.117C23.6475 164.105 23.7119 164.088 23.7744 164.065C23.8162 164.055 23.8565 164.039 23.894 164.018C23.8185 164.051 23.7371 164.068 23.6548 164.068C23.5726 164.068 23.4912 164.051 23.4156 164.018C23.309 163.947 23.224 163.848 23.1699 163.731C23.1158 163.615 23.0947 163.486 23.1088 163.358V124.228C23.0983 124.05 23.1425 123.874 23.2355 123.722C23.3285 123.571 23.4658 123.451 23.6288 123.38L23.1088 123.079L20.28 121.446C20.0986 121.743 19.9965 122.081 19.9836 122.429Z" fill="#202124"/>
<path opacity="0.2" d="M23.1089 123.079L46.7429 131.919C47.5606 132.224 48.458 132.242 49.2871 131.969C50.1162 131.696 50.8274 131.148 51.3033 130.416L55.1201 124.592L76.0553 92.5184L55.8585 124.8L76.1385 132.74C76.119 133.092 76.0117 133.434 75.8265 133.734L55.8013 124.894L51.3865 131.95C50.8972 132.733 50.142 133.313 49.2595 133.585C48.377 133.856 47.4262 133.8 46.5817 133.427L43.4617 132.038L23.4001 164.008C23.2934 163.936 23.2084 163.837 23.1543 163.721C23.1002 163.604 23.0791 163.475 23.0933 163.348V162.698L43.3265 132.018L23.1089 123.079Z" fill="#202124"/>
<path d="M203.434 14.5598C203.448 14.4248 203.427 14.2886 203.373 14.164C203.319 14.0394 203.235 13.9304 203.128 13.8474H203.102L201.022 12.6358C200.895 12.5768 200.755 12.5529 200.616 12.5667C200.477 12.5804 200.344 12.6312 200.231 12.7138L167.96 31.2622L167.092 28.3658C167.022 28.105 166.855 27.8812 166.624 27.7418L164.523 26.5198C164.364 26.4276 164.183 26.3812 163.999 26.3857C163.816 26.3903 163.637 26.4457 163.483 26.5458L149.64 34.5434C149.314 34.7578 149.042 35.0459 148.847 35.3846C148.652 35.7233 148.539 36.1031 148.517 36.4934V82.6798C148.505 82.8147 148.527 82.9504 148.581 83.0748C148.634 83.1991 148.718 83.3082 148.824 83.3922H148.85L150.93 84.6038H150.956C151.082 84.6532 151.218 84.6705 151.353 84.6542C151.487 84.6379 151.615 84.5884 151.726 84.5102L202.28 55.3226C202.607 55.1082 202.879 54.8201 203.074 54.4814C203.269 54.1427 203.382 53.7629 203.403 53.3726L203.434 14.5598Z" fill="#5AC97A"/>
<path opacity="0.4" d="M166.608 27.7264C166.451 27.6449 166.274 27.6063 166.097 27.6145C165.92 27.6227 165.748 27.6774 165.599 27.7732L151.752 35.7656C151.421 35.977 151.148 36.2662 150.956 36.608L148.845 35.386C149.032 35.0409 149.307 34.7506 149.64 34.5436L163.488 26.5512C163.642 26.4522 163.821 26.3975 164.004 26.3929C164.188 26.3883 164.369 26.4341 164.528 26.5252L166.608 27.7264Z" fill="#F8F8F8"/>
<path opacity="0.4" d="M203.044 13.7852C202.921 13.7454 202.791 13.7346 202.663 13.7535C202.534 13.7725 202.412 13.8207 202.306 13.8944L169.723 32.6924C169.59 32.7806 169.439 32.8353 169.28 32.8519C169.122 32.8685 168.962 32.8465 168.815 32.7877C168.667 32.7288 168.535 32.635 168.432 32.5143C168.328 32.3935 168.256 32.2494 168.22 32.0944L167.97 31.2624L200.21 12.6724C200.367 12.5752 200.547 12.523 200.73 12.5216C200.832 12.5202 200.933 12.5453 201.022 12.5944L203.044 13.7852Z" fill="#F8F8F8"/>
<path opacity="0.1" d="M150.8 84.4636C150.831 84.5082 150.868 84.5485 150.909 84.5832L148.866 83.408C148.785 83.3518 148.719 83.2769 148.673 83.1896C148.651 83.1486 148.633 83.1049 148.621 83.0596C148.582 82.9424 148.563 82.8193 148.564 82.6956V36.4936C148.562 36.4486 148.562 36.4034 148.564 36.3584C148.575 36.264 148.59 36.1703 148.611 36.0776C148.611 36.0308 148.637 35.984 148.647 35.9372C148.695 35.7946 148.752 35.6556 148.819 35.5212C148.84 35.4745 148.864 35.4293 148.892 35.386L151.003 36.608C150.801 36.9431 150.688 37.3244 150.675 37.7156V83.8968C150.67 83.9625 150.67 84.0286 150.675 84.0944C150.673 84.1307 150.673 84.1672 150.675 84.2036V84.2608L150.707 84.3336C150.73 84.382 150.762 84.426 150.8 84.4636Z" fill="#202124"/>
<path d="M116.834 160.025C116.807 159.541 116.667 159.071 116.425 158.652C116.183 158.233 115.845 157.877 115.44 157.612L114.306 156.957C113.874 156.741 113.397 156.628 112.913 156.628C112.429 156.628 111.952 156.741 111.519 156.957L73.866 178.682C73.4606 178.947 73.1233 179.303 72.8812 179.722C72.639 180.142 72.499 180.612 72.4724 181.095V185.531C72.499 186.014 72.639 186.484 72.8812 186.904C73.1233 187.323 73.4606 187.679 73.866 187.944L75.0048 188.599C75.4361 188.817 75.9126 188.93 76.3958 188.93C76.8791 188.93 77.3555 188.817 77.7868 188.599L115.44 166.873C115.846 166.609 116.184 166.253 116.426 165.834C116.668 165.414 116.808 164.944 116.834 164.46V160.025Z" fill="#37474F"/>
<path d="M72.4724 185.531C72.4982 186.014 72.6379 186.485 72.8801 186.904C73.1222 187.324 73.4601 187.68 73.866 187.944L75.0048 188.599C75.3979 188.795 75.828 188.907 76.2671 188.926C76.7062 188.944 77.1444 188.87 77.5528 188.708C76.8924 188.958 76.3932 188.588 76.3932 187.793V183.362C76.4094 182.875 76.5509 182.401 76.804 181.984L72.8832 179.722C72.6307 180.137 72.4893 180.61 72.4724 181.095V185.531Z" fill="#263238"/>
<path d="M116.787 159.64C116.626 159.047 116.085 158.86 115.44 159.229L77.7868 180.96C77.3734 181.214 77.0344 181.573 76.804 182L72.8884 179.738C73.1183 179.312 73.4553 178.954 73.866 178.698L111.514 156.967C111.947 156.751 112.424 156.639 112.908 156.639C113.391 156.639 113.868 156.751 114.301 156.967L115.44 157.628C115.789 157.854 116.089 158.149 116.32 158.495C116.552 158.841 116.711 159.231 116.787 159.64Z" fill="#455A64"/>
<path d="M81.1876 181.48C81.9208 181.059 82.5136 181.402 82.5136 182.244C82.4888 182.704 82.3558 183.151 82.1254 183.55C81.8949 183.948 81.5736 184.287 81.1876 184.538C80.4596 184.959 79.8668 184.616 79.8668 183.773C79.8919 183.314 80.0244 182.867 80.2539 182.469C80.4833 182.071 80.8032 181.732 81.1876 181.48Z" fill="#F8F8F8"/>
<path d="M85.566 178.968C86.294 178.547 86.8868 178.89 86.8868 179.733C86.8622 180.192 86.7298 180.639 86.5003 181.037C86.2709 181.436 85.9508 181.774 85.566 182.026C84.8328 182.447 84.2452 182.104 84.2452 181.262C84.2699 180.802 84.4023 180.356 84.6317 179.957C84.8612 179.559 85.1813 179.22 85.566 178.968Z" fill="#F8F8F8"/>
<path d="M89.96 176.446C90.6932 176.025 91.286 176.363 91.286 177.211C91.2608 177.67 91.1275 178.116 90.8971 178.514C90.6667 178.911 90.3456 179.249 89.96 179.499C89.232 179.92 88.6392 179.577 88.6392 178.734C88.6642 178.276 88.7968 177.83 89.0263 177.433C89.2557 177.035 89.5756 176.697 89.96 176.446Z" fill="#F8F8F8"/>
<path d="M94.3176 173.919C95.0456 173.498 95.6384 173.841 95.6384 174.684C95.6134 175.142 95.4808 175.588 95.2513 175.985C95.0218 176.383 94.7019 176.721 94.3176 176.972C93.5844 177.393 92.9916 177.055 92.9916 176.207C93.0168 175.748 93.15 175.302 93.3804 174.904C93.6109 174.507 93.932 174.169 94.3176 173.919Z" fill="#F8F8F8"/>
<path d="M98.6908 171.392C99.424 170.971 100.017 171.314 100.017 172.156C99.9912 172.616 99.8578 173.063 99.6275 173.461C99.3971 173.86 99.0762 174.198 98.6908 174.45C97.9628 174.871 97.37 174.528 97.37 173.685C97.3946 173.226 97.527 172.779 97.7565 172.381C97.986 171.982 98.306 171.644 98.6908 171.392Z" fill="#F8F8F8"/>
<path d="M103.069 168.865C103.797 168.444 104.39 168.787 104.39 169.629C104.365 170.088 104.232 170.535 104.003 170.933C103.773 171.332 103.454 171.67 103.069 171.922C102.336 172.344 101.743 172 101.743 171.158C101.768 170.698 101.901 170.251 102.131 169.853C102.362 169.454 102.683 169.116 103.069 168.865Z" fill="#F8F8F8"/>
<path d="M107.442 166.338C108.17 165.916 108.763 166.26 108.763 167.102C108.739 167.561 108.606 168.008 108.377 168.406C108.147 168.805 107.827 169.143 107.442 169.395C106.714 169.816 106.122 169.473 106.122 168.631C106.147 168.172 106.28 167.726 106.51 167.327C106.739 166.929 107.058 166.59 107.442 166.338Z" fill="#F8F8F8"/>
<path d="M111.8 163.8C112.533 163.379 113.126 163.717 113.126 164.564C113.101 165.023 112.968 165.47 112.737 165.867C112.507 166.265 112.186 166.602 111.8 166.852C111.072 167.274 110.479 166.93 110.479 166.088C110.504 165.63 110.637 165.184 110.866 164.786C111.096 164.389 111.416 164.051 111.8 163.8Z" fill="#F8F8F8"/>
<path d="M116.834 174.652C116.807 174.169 116.667 173.699 116.425 173.28C116.183 172.86 115.845 172.504 115.44 172.24L114.306 171.6C113.874 171.384 113.397 171.271 112.913 171.271C112.429 171.271 111.952 171.384 111.519 171.6L73.866 193.326C73.4601 193.59 73.1222 193.946 72.8801 194.365C72.6379 194.784 72.4982 195.255 72.4724 195.738V200.174C72.499 200.657 72.639 201.128 72.8812 201.547C73.1233 201.966 73.4606 202.322 73.866 202.587L75.0048 203.242C75.4361 203.46 75.9126 203.574 76.3958 203.574C76.8791 203.574 77.3555 203.46 77.7868 203.242L115.44 181.48C115.846 181.216 116.184 180.86 116.426 180.441C116.668 180.021 116.808 179.551 116.834 179.067V174.652Z" fill="#37474F"/>
<path d="M72.4724 200.158C72.499 200.642 72.639 201.112 72.8812 201.531C73.1233 201.95 73.4606 202.307 73.866 202.571L75.0048 203.226C75.3979 203.423 75.828 203.534 76.2671 203.553C76.7062 203.572 77.1444 203.498 77.5528 203.336C76.8924 203.585 76.3932 203.216 76.3932 202.42V197.985C76.4101 197.499 76.5515 197.027 76.804 196.612L72.8832 194.35C72.6307 194.765 72.4893 195.238 72.4724 195.723V200.158Z" fill="#263238"/>
<path d="M116.787 174.257C116.626 173.664 116.085 173.477 115.44 173.846L77.7868 195.577C77.3734 195.831 77.0344 196.19 76.804 196.617L72.8884 194.355C73.1183 193.929 73.4553 193.571 73.866 193.315L111.514 171.6C111.947 171.384 112.424 171.271 112.908 171.271C113.391 171.271 113.868 171.384 114.301 171.6L115.44 172.26C115.788 172.485 116.086 172.778 116.318 173.121C116.549 173.464 116.709 173.851 116.787 174.257Z" fill="#455A64"/>
<path d="M81.1876 196.123C81.9208 195.702 82.5136 196.045 82.5136 196.888C82.488 197.347 82.3546 197.794 82.1243 198.192C81.8939 198.591 81.5731 198.929 81.1876 199.181C80.4596 199.602 79.8668 199.259 79.8668 198.416C79.8914 197.957 80.0239 197.51 80.2533 197.112C80.4828 196.714 80.8029 196.375 81.1876 196.123Z" fill="#F8F8F8"/>
<path d="M85.566 193.596C86.294 193.175 86.8868 193.518 86.8868 194.36C86.8618 194.819 86.7292 195.266 86.4998 195.664C86.2704 196.063 85.9505 196.402 85.566 196.654C84.8328 197.075 84.2452 196.732 84.2452 195.889C84.269 195.43 84.4011 194.983 84.6306 194.584C84.8602 194.186 85.1807 193.847 85.566 193.596Z" fill="#F8F8F8"/>
<path d="M89.96 191.074C90.6932 190.648 91.286 190.991 91.286 191.833C91.2616 192.293 91.1287 192.74 90.8982 193.139C90.6678 193.538 90.3463 193.876 89.96 194.126C89.232 194.548 88.6392 194.204 88.6392 193.362C88.6642 192.904 88.7968 192.458 89.0263 192.06C89.2557 191.663 89.5756 191.325 89.96 191.074Z" fill="#F8F8F8"/>
<path d="M94.3176 188.547C95.0456 188.126 95.6384 188.464 95.6384 189.311C95.6134 189.77 95.4808 190.215 95.2513 190.613C95.0218 191.01 94.7019 191.348 94.3176 191.599C93.5844 192.02 92.9916 191.682 92.9916 190.835C93.0168 190.376 93.15 189.93 93.3804 189.532C93.6109 189.134 93.932 188.797 94.3176 188.547Z" fill="#F8F8F8"/>
<path d="M98.6908 186.02C99.424 185.598 100.017 185.942 100.017 186.784C99.9916 187.243 99.8584 187.689 99.628 188.087C99.3975 188.484 99.0764 188.822 98.6908 189.072C97.9628 189.493 97.37 189.155 97.37 188.313C97.3946 187.854 97.527 187.407 97.7565 187.008C97.986 186.61 98.306 186.271 98.6908 186.02Z" fill="#F8F8F8"/>
<path d="M103.069 183.492C103.797 183.071 104.39 183.414 104.39 184.257C104.364 184.716 104.231 185.162 104.002 185.56C103.772 185.958 103.453 186.297 103.069 186.55C102.336 186.971 101.743 186.628 101.743 185.786C101.768 185.326 101.9 184.878 102.131 184.48C102.361 184.081 102.683 183.743 103.069 183.492Z" fill="#F8F8F8"/>
<path d="M107.442 180.96C108.17 180.539 108.763 180.882 108.763 181.724C108.738 182.183 108.606 182.63 108.376 183.028C108.147 183.427 107.827 183.766 107.442 184.018C106.714 184.439 106.122 184.096 106.122 183.253C106.147 182.794 106.279 182.347 106.509 181.949C106.738 181.551 107.058 181.212 107.442 180.96Z" fill="#F8F8F8"/>
<path d="M111.8 178.443C112.533 178.017 113.126 178.36 113.126 179.202C113.099 179.659 112.965 180.104 112.735 180.499C112.504 180.895 112.184 181.231 111.8 181.48C111.072 181.901 110.479 181.558 110.479 180.716C110.507 180.26 110.64 179.817 110.87 179.422C111.099 179.028 111.418 178.692 111.8 178.443Z" fill="#F8F8F8"/>
<path d="M71.24 186.326C71.213 185.843 71.0728 185.373 70.8307 184.954C70.5886 184.535 70.2515 184.178 69.8464 183.914L68.7076 183.258C68.2763 183.04 67.7998 182.927 67.3166 182.927C66.8333 182.927 66.3569 183.04 65.9256 183.258L48.5212 193.326C48.1152 193.59 47.7774 193.946 47.5352 194.365C47.293 194.784 47.1533 195.255 47.1276 195.738V214.817C47.1546 215.3 47.2948 215.771 47.5368 216.19C47.7789 216.609 48.1161 216.965 48.5212 217.23L49.6548 217.88C50.0875 218.096 50.5646 218.208 51.0484 218.208C51.5321 218.208 52.0092 218.096 52.442 217.88L69.8412 207.813C70.2481 207.549 70.5869 207.194 70.83 206.774C71.0731 206.355 71.2136 205.884 71.24 205.4V186.326Z" fill="#5AC97A"/>
<path opacity="0.2" d="M47.1276 214.817C47.1546 215.3 47.2948 215.771 47.5368 216.19C47.7789 216.609 48.1161 216.965 48.5212 217.23L49.6548 217.88C50.0478 218.077 50.478 218.188 50.9171 218.207C51.3562 218.226 51.7943 218.151 52.2028 217.989C51.5476 218.239 51.0484 217.87 51.0484 217.074V198C51.0657 197.516 51.2052 197.044 51.454 196.628L47.5332 194.366C47.2838 194.781 47.1442 195.254 47.1276 195.738V214.817Z" fill="#202124"/>
<path opacity="0.3" d="M71.1879 185.931C71.0215 185.344 70.4859 185.151 69.8411 185.526L52.4419 195.588C52.0283 195.842 51.6893 196.2 51.4591 196.628L47.5383 194.366C47.7716 193.941 48.11 193.582 48.5211 193.326L65.9151 183.264C66.3479 183.048 66.825 182.935 67.3087 182.935C67.7925 182.935 68.2695 183.048 68.7023 183.264L69.8411 183.919C70.1904 184.145 70.4899 184.441 70.7215 184.786C70.953 185.132 71.1117 185.522 71.1879 185.931Z" fill="#F8F8F8"/>
<path d="M60.8816 193.788C62.556 192.821 63.9132 193.601 63.9132 195.536C63.8562 196.588 63.552 197.612 63.0253 198.524C62.4985 199.437 61.7641 200.212 60.8816 200.788C59.2072 201.755 57.85 200.97 57.85 199.035C57.9061 197.984 58.21 196.96 58.7368 196.048C59.2637 195.137 59.9986 194.362 60.8816 193.788Z" fill="#F8F8F8"/>
<path d="M66.8563 204.095C66.8563 200.918 64.6255 199.633 61.8747 201.219L60.1535 202.212C57.4079 203.798 55.1771 207.662 55.1771 210.839V211.692C56.7371 212.212 65.2443 207.282 66.8563 204.833V204.095Z" fill="#F8F8F8"/>
<path d="M227.864 148.855L221.525 145.215C221.276 145.08 220.907 145.174 220.485 145.512C220.251 145.689 220.017 145.86 219.778 146.032L219.518 146.198L219.05 146.495L218.712 146.682C218.577 146.76 218.437 146.843 218.296 146.916C218.156 146.989 218.041 147.041 217.911 147.103C217.781 147.165 217.662 147.233 217.532 147.29L217.105 147.472L216.752 147.618C216.596 147.68 216.44 147.737 216.284 147.789L215.961 147.909L215.441 148.06L215.145 148.148C214.968 148.2 214.786 148.242 214.625 148.283L214.36 148.346L213.788 148.46L213.554 148.502L212.945 148.59H212.748C212.535 148.59 212.321 148.637 212.108 148.647H211.942C211.718 148.647 211.5 148.647 211.276 148.673H211.12C210.891 148.673 210.663 148.673 210.434 148.673H210.33C210.091 148.673 209.857 148.642 209.617 148.621H209.55L208.817 148.528H208.78L208.167 148.408C208.038 148.267 207.889 148.146 207.725 148.049L207.652 148.008L201.412 144.399C200.892 144.103 200.413 144.316 200.112 145.075C196.019 155.225 187.309 165.521 181.506 168.095C181.391 168.143 181.279 168.201 181.173 168.267C181.101 168.309 181.038 168.355 180.965 168.402C180.893 168.449 180.908 168.444 180.877 168.47C180.789 168.533 180.706 168.603 180.627 168.678C180.544 168.761 180.461 168.844 180.383 168.938C179.968 169.388 179.737 169.979 179.738 170.591L180.575 193.399C180.575 200.044 183.404 207.064 189.176 210.418L195.51 214.058L195.593 214.105C198.523 215.73 201.892 216.389 205.218 215.987C206.462 215.784 207.615 215.21 208.525 214.339C221.187 201.24 227.36 183.482 227.36 173.68L228.197 149.833C228.213 149.303 228.088 148.985 227.864 148.855Z" fill="#5AC97A"/>
<path opacity="0.15" d="M195.328 213.975L189.145 210.402C183.378 207.048 180.544 200.028 180.544 193.383L179.702 170.56C179.708 170.163 179.805 169.774 179.985 169.42C180.165 169.067 180.424 168.76 180.742 168.522C180.603 168.639 180.474 168.768 180.357 168.906L186.69 172.546C186.272 172.999 186.041 173.594 186.046 174.21L186.878 197.012C186.872 203.632 189.66 210.6 195.328 213.975Z" fill="#202124"/>
<path opacity="0.3" d="M227.854 148.845C227.609 148.715 227.245 148.814 226.814 149.152C221.094 153.509 212.592 153.514 208.255 148.465L208.177 148.377C210.315 148.792 212.517 148.749 214.638 148.252C216.758 147.754 218.749 146.813 220.48 145.491C220.927 145.148 221.291 145.059 221.52 145.194L227.854 148.845Z" fill="#F8F8F8"/>
<path opacity="0.5" d="M207.652 147.976C207.168 147.748 206.726 147.976 206.44 148.694C202.353 158.85 193.638 169.14 187.829 171.714C187.392 171.913 187.004 172.204 186.69 172.567L180.357 168.927C180.474 168.789 180.603 168.66 180.742 168.542L180.882 168.428C180.933 168.396 180.981 168.362 181.028 168.324L181.184 168.23C181.283 168.168 181.388 168.115 181.496 168.069C187.299 165.495 196.014 155.199 200.101 145.044C200.32 144.524 200.621 144.248 200.97 144.248C201.122 144.249 201.272 144.292 201.401 144.373L207.652 147.976Z" fill="#F8F8F8"/>
<path d="M238.737 170.747L235.357 168.792L222.102 200.028L224.364 201.334L238.737 170.747Z" fill="#455A64"/>
<path d="M218.66 191.719L215.275 189.769L211.64 197.46L215.025 199.41L218.66 191.719Z" fill="#455A64"/>
<path d="M225.233 210.491L215.025 199.41L218.66 191.719L224.364 201.334L238.737 170.747L244.067 175.947L225.233 210.491Z" fill="#37474F"/>
<path d="M211.64 197.46L215.025 199.41L225.233 210.491L221.853 208.562L211.64 197.46Z" fill="#263238"/>
</svg>
