<svg width="160" height="160" viewBox="0 0 160 160" fill="none" xmlns="http://www.w3.org/2000/svg">
<g clip-path="url(#clip0_277_265)">
<rect width="160" height="160" rx="80" fill="#9EE8B3" fill-opacity="0.15"/>
<path d="M26 72.4934C26 69.2947 29.5683 67.3899 32.2259 69.1699L77.5241 99.5091C78.8709 100.411 80.6291 100.411 81.9759 99.5091L127.274 69.1699C129.932 67.3899 133.5 69.2947 133.5 72.4934V125C133.5 127.209 131.709 129 129.5 129H79.75H30C27.7909 129 26 127.209 26 125V72.4934Z" fill="#FFFCA8"/>
<path d="M30.04 129C25.666 129 24.4656 122.986 28.5044 121.307L78.2153 100.638C79.1982 100.23 80.3036 100.23 81.2865 100.638L130.996 121.307C135.035 122.986 133.834 129 129.46 129H30.04Z" fill="#FFEE96"/>
<path d="M44 35C44 32.7909 45.7909 31 48 31H80.5H113C115.209 31 117 32.7909 117 35V64.8429C117 66.1893 116.323 67.4454 115.198 68.1851L82.6976 89.555C81.3638 90.432 79.6362 90.432 78.3024 89.555L45.8024 68.1851C44.6774 67.4454 44 66.1893 44 64.8429V35Z" fill="#5AC97A"/>
<path d="M77.8139 68.5878C77.3971 68.5878 77.0065 68.5221 76.6419 68.3909C76.2772 68.2596 75.9387 68.0388 75.6261 67.7283L67.8235 59.8161C67.2506 59.2431 66.9766 58.5004 67.0016 57.5878C67.0266 56.6752 67.3266 55.9334 67.9017 55.3626C68.4746 54.7896 69.2039 54.5031 70.0894 54.5031C70.9749 54.5031 71.7041 54.7896 72.2771 55.3626L77.8139 61.0089L90.6884 44.8595C91.2614 44.2865 92.0042 44 92.9168 44C93.8294 44 94.5711 44.2865 95.142 44.8595C95.715 45.4324 96.0015 46.1752 96.0015 47.0878C96.0015 48.0004 95.715 48.7421 95.142 49.313L80.0016 67.7283C79.689 68.0408 79.3505 68.2627 78.9858 68.394C78.6212 68.5253 78.2306 68.5899 77.8139 68.5878Z" fill="#F8F8F8"/>
</g>
<defs>
<clipPath id="clip0_277_265">
<rect width="160" height="160" fill="white"/>
</clipPath>
</defs>
</svg>
