<svg width="20" height="20" viewBox="0 0 20 20" fill="none" xmlns="http://www.w3.org/2000/svg">
<path d="M3.34258 17.4316H16.6574C16.8737 17.4316 17.0862 17.3755 17.2743 17.2687C17.4624 17.1619 17.6195 17.0082 17.7304 16.8226C17.8413 16.6369 17.9021 16.4256 17.9069 16.2094C17.9117 15.9932 17.8603 15.7795 17.7578 15.5891L11.1008 3.22578C10.6285 2.34922 9.37149 2.34922 8.89922 3.22578L2.24219 15.5891C2.13967 15.7795 2.08831 15.9932 2.09311 16.2094C2.09792 16.4256 2.15874 16.6369 2.26962 16.8226C2.3805 17.0082 2.53765 17.1619 2.72571 17.2687C2.91378 17.3755 3.12633 17.4316 3.34258 17.4316Z" stroke="#E3E3E3" stroke-linecap="round" stroke-linejoin="round"/>
<path d="M9.77579 7.63242L10 12.398L10.2238 7.63438C10.2252 7.60392 10.2204 7.57351 10.2096 7.54499C10.1988 7.51647 10.1824 7.49045 10.1612 7.46851C10.14 7.44657 10.1146 7.42918 10.0865 7.41741C10.0584 7.40563 10.0281 7.3997 9.99766 7.4C9.96771 7.40029 9.93812 7.40658 9.91064 7.4185C9.88316 7.43042 9.85835 7.44772 9.83767 7.46938C9.81699 7.49105 9.80086 7.51664 9.79023 7.54464C9.7796 7.57264 9.77469 7.60249 9.77579 7.63242Z" stroke="#E3E3E3" stroke-linecap="round" stroke-linejoin="round"/>
<path d="M10 15.5176C9.84548 15.5176 9.69444 15.4718 9.56596 15.3859C9.43749 15.3001 9.33735 15.1781 9.27822 15.0353C9.21909 14.8925 9.20362 14.7355 9.23376 14.5839C9.26391 14.4324 9.33831 14.2932 9.44757 14.1839C9.55683 14.0746 9.69604 14.0002 9.84759 13.9701C9.99913 13.9399 10.1562 13.9554 10.299 14.0145C10.4417 14.0737 10.5637 14.1738 10.6496 14.3023C10.7354 14.4308 10.7813 14.5818 10.7813 14.7363C10.7813 14.9435 10.6989 15.1422 10.5524 15.2888C10.4059 15.4353 10.2072 15.5176 10 15.5176Z" fill="#E3E3E3"/>
</svg>
